<?xml version="1.0" encoding="iso-8859-1"?>
<!-- Generator: Adobe Illustrator 19.0.0, SVG Export Plug-In . SVG Version: 6.00 Build 0)  -->
<svg version="1.1" id="Layer_1" xmlns="http://www.w3.org/2000/svg" xmlns:xlink="http://www.w3.org/1999/xlink" x="0px" y="0px"
	 viewBox="0 0 512.001 512.001" style="enable-background:new 0 0 512.001 512.001;" xml:space="preserve">
<g>
	<path style="fill:#B36E44;" d="M96.246,436.009H22.457c-2.308,0-4.18-1.871-4.18-4.18V99.257c0-2.308,1.871-4.18,4.18-4.18h73.789
		V436.009z"/>
	<rect x="96.246" y="95.078" style="fill:#B36E44;" width="77.97" height="340.929"/>
	<rect x="174.216" y="95.078" style="fill:#B36E44;" width="77.97" height="340.929"/>
	<rect x="252.176" y="95.078" style="fill:#B36E44;" width="77.97" height="340.929"/>
	<rect x="330.146" y="95.078" style="fill:#B36E44;" width="77.97" height="340.929"/>
	<path style="fill:#B36E44;" d="M481.905,436.009h-73.789V95.078h73.789c2.308,0,4.18,1.871,4.18,4.18v332.571
		C486.084,434.138,484.213,436.009,481.905,436.009z"/>
</g>
<g>
	<path style="fill:#8C5635;" d="M37.682,436.009H22.459c-2.308,0-4.18-1.871-4.18-4.18V99.257c0-2.308,1.871-4.18,4.18-4.18h15.222
		v340.931H37.682z"/>
	<rect x="96.246" y="95.078" style="fill:#8C5635;" width="19.402" height="340.929"/>
	<rect x="174.216" y="95.078" style="fill:#8C5635;" width="19.402" height="340.929"/>
	<rect x="252.176" y="95.078" style="fill:#8C5635;" width="19.402" height="340.929"/>
	<rect x="330.146" y="95.078" style="fill:#8C5635;" width="19.402" height="340.929"/>
	<rect x="408.116" y="95.078" style="fill:#8C5635;" width="19.402" height="340.929"/>
</g>
<g>
	<path style="fill:#CFBAA7;" d="M495.831,265.533H16.169C7.239,265.533,0,258.294,0,249.364l0,0c0-8.93,7.239-16.169,16.169-16.169
		h479.664c8.93,0,16.169,7.239,16.169,16.169l0,0C512,258.294,504.761,265.533,495.831,265.533z"/>
	<path style="fill:#CFBAA7;" d="M495.831,297.87H16.169C7.239,297.87,0,290.631,0,281.702l0,0c0-8.93,7.239-16.169,16.169-16.169
		h479.664c8.93,0,16.169,7.239,16.169,16.169l0,0C512,290.631,504.761,297.87,495.831,297.87z"/>
</g>
<g>
	<path style="fill:#B8A594;" d="M59.09,233.192c0,1.272-0.302,2.555-0.927,3.751l-14.95,28.585L26.29,297.865H16.168
		c-2.48,0-4.828-0.56-6.931-1.562c0.14-0.744,0.399-1.476,0.765-2.178l14.961-28.597l16.913-32.336H59.09z"/>
	<path style="fill:#B8A594;" d="M103.779,233.192c0,1.272-0.302,2.555-0.927,3.751l-14.95,28.585L70.98,297.865H53.765
		c0-1.272,0.302-2.543,0.927-3.74l14.961-28.597l16.912-32.336H103.779z"/>
	<path style="fill:#B8A594;" d="M148.458,233.192c0,1.272-0.302,2.555-0.927,3.751l-14.95,28.585l-16.923,32.336H98.444
		c0-1.272,0.302-2.543,0.927-3.74l14.961-28.597l16.912-32.336L148.458,233.192L148.458,233.192z"/>
	<path style="fill:#B8A594;" d="M193.148,233.192c0,1.272-0.302,2.555-0.927,3.751l-14.95,28.585l-16.923,32.336h-17.214
		c0-1.272,0.302-2.543,0.927-3.74l14.961-28.597l16.912-32.336L193.148,233.192L193.148,233.192z"/>
	<path style="fill:#B8A594;" d="M237.838,233.192c0,1.272-0.302,2.555-0.927,3.751l-14.95,28.585l-16.923,32.336h-17.214
		c0-1.272,0.302-2.543,0.927-3.74l14.961-28.597l16.912-32.336L237.838,233.192L237.838,233.192z"/>
	<path style="fill:#B8A594;" d="M282.516,233.192c0,1.272-0.302,2.555-0.927,3.751l-14.95,28.585l-16.923,32.336h-17.214
		c0-1.272,0.302-2.543,0.927-3.74l14.961-28.597l16.912-32.336L282.516,233.192L282.516,233.192z"/>
	<path style="fill:#B8A594;" d="M327.206,233.192c0,1.272-0.302,2.555-0.927,3.751l-14.95,28.585l-16.923,32.336h-17.214
		c0-1.272,0.302-2.543,0.927-3.74l14.961-28.597l16.913-32.336L327.206,233.192L327.206,233.192z"/>
	<path style="fill:#B8A594;" d="M371.895,233.192c0,1.272-0.302,2.555-0.927,3.751l-14.95,28.585l-16.923,32.336h-17.214
		c0-1.272,0.302-2.543,0.927-3.74l14.961-28.597l16.913-32.336L371.895,233.192L371.895,233.192z"/>
	<path style="fill:#B8A594;" d="M416.574,233.192c0,1.272-0.302,2.555-0.927,3.751l-14.95,28.585l-16.923,32.336H366.56
		c0-1.272,0.302-2.543,0.927-3.74l14.961-28.597l16.912-32.336L416.574,233.192L416.574,233.192z"/>
	<path style="fill:#B8A594;" d="M461.264,233.192c0,1.272-0.302,2.555-0.927,3.751l-14.95,28.585l-16.923,32.336H411.25
		c0-1.272,0.302-2.543,0.927-3.74l14.961-28.597l16.912-32.336L461.264,233.192L461.264,233.192z"/>
	<path style="fill:#B8A594;" d="M505.306,236.264c-0.097,0.27-0.215,0.539-0.355,0.797l-14.886,28.467l-16.912,32.336H455.94
		c0-1.272,0.302-2.543,0.927-3.74l14.95-28.597l16.912-32.336h7.103C499.367,233.192,502.644,234.335,505.306,236.264z"/>
</g>
<path style="fill:#F7F1EB;" d="M226.466,79.377v239.626c0,1.876-1.509,3.384-3.384,3.384H65.008c-1.865,0-3.384-1.509-3.384-3.384
	V79.377c0-1.865,1.52-3.384,3.384-3.384h158.073C224.956,75.992,226.466,77.512,226.466,79.377z"/>
<path style="fill:#DBD2CA;" d="M81.026,75.992v246.395H65.008c-1.865,0-3.384-1.509-3.384-3.384V79.377
	c0-1.865,1.52-3.384,3.384-3.384h16.017V75.992z"/>
<g>
</g>
<g>
</g>
<g>
</g>
<g>
</g>
<g>
</g>
<g>
</g>
<g>
</g>
<g>
</g>
<g>
</g>
<g>
</g>
<g>
</g>
<g>
</g>
<g>
</g>
<g>
</g>
<g>
</g>
</svg>
