<?xml version="1.0" encoding="iso-8859-1"?>
<!-- Generator: Adobe Illustrator 19.0.0, SVG Export Plug-In . SVG Version: 6.00 Build 0)  -->
<svg version="1.1" id="Layer_1" xmlns="http://www.w3.org/2000/svg" xmlns:xlink="http://www.w3.org/1999/xlink" x="0px" y="0px"
	 viewBox="0 0 512 512" style="enable-background:new 0 0 512 512;" xml:space="preserve">
<path style="fill:#D6D6D6;" d="M346.553,201.001l-78.276,155.955c-0.195,0.38-0.489,0.684-0.847,0.902L22.152,500.704l-18.95,11.033
	c-0.945,0.499-1.933,0.239-2.552-0.391c-0.641-0.641-0.902-1.661-0.348-2.628L154.14,244.57c0.217-0.358,0.521-0.652,0.902-0.847
	l155.956-78.276l20.481,15.073L346.553,201.001z"/>
<path style="fill:#B3B3B3;" d="M310.998,165.446l-141.983,92.469L30.447,495.87L3.202,511.738c-0.945,0.499-1.933,0.239-2.552-0.391
	c-0.641-0.641-0.902-1.661-0.348-2.628L154.14,244.57c0.217-0.358,0.521-0.652,0.902-0.847L310.998,165.446z"/>
<path style="fill:#C9C9C9;" d="M346.553,201.001l-78.276,155.955c-0.195,0.38-0.489,0.684-0.847,0.902l-128.807,75.018
	L3.647,511.477l-0.445,0.26c-0.945,0.499-1.933,0.239-2.552-0.391L331.479,180.52L346.553,201.001z"/>
<polygon style="fill:#F75534;" points="444.385,103.163 409.82,137.728 395.849,151.698 374.45,173.098 360.312,187.235 
	346.551,200.996 311.004,165.449 408.837,67.615 "/>
<rect x="297.646" y="113.665" transform="matrix(-0.7071 0.7071 -0.7071 -0.7071 713.4887 -48.6607)" style="fill:#BD391E;" width="138.354" height="19.547"/>
<path style="fill:#D6D6D6;" d="M496.266,15.734c-20.978-20.978-54.991-20.978-75.969,0c-20.978,20.978-20.978,54.99,0,75.968
	c20.978,20.978,54.991,20.978,75.969,0C517.245,70.724,517.245,36.711,496.266,15.734z M476.411,71.847
	c-10.012,10.012-26.246,10.012-36.258,0s-10.012-26.246,0-36.258s26.246-10.012,36.258,0
	C486.423,45.601,486.423,61.835,476.411,71.847z"/>
<path style="fill:#BDBDBD;" d="M138.623,432.875L3.647,511.477c-1.923-0.087-2.997-0.131-2.997-0.131l49.759-49.759L138.623,432.875
	z"/>
<g>
</g>
<g>
</g>
<g>
</g>
<g>
</g>
<g>
</g>
<g>
</g>
<g>
</g>
<g>
</g>
<g>
</g>
<g>
</g>
<g>
</g>
<g>
</g>
<g>
</g>
<g>
</g>
<g>
</g>
</svg>
